<svg xmlns="http://www.w3.org/2000/svg" version="1.1" xmlns:xlink="http://www.w3.org/1999/xlink" xmlns:svgjs="http://svgjs.dev/svgjs" width="1000" height="1000" viewBox="0 0 1000 1000"><rect width="1000" height="1000" fill="#ffffff"></rect><g transform="matrix(0.7,0,0,0.7,150,150)"><svg viewBox="0 0 280 280" data-background-color="#ffffff" preserveAspectRatio="xMidYMid meet" height="1000" width="1000" xmlns="http://www.w3.org/2000/svg" xmlns:xlink="http://www.w3.org/1999/xlink"><g id="tight-bounds" transform="matrix(1,0,0,1,0,0)"><svg viewBox="0 0 280 280" height="280" width="280"><g><svg viewBox="0 0 280 280" height="280" width="280"><g><svg viewBox="0 0 280 280" height="280" width="280"><g id="textblocktransform"><svg viewBox="0 0 280 280" height="280" width="280" id="textblock"><g><svg viewBox="0 0 280 280" height="280" width="280"><g transform="matrix(1,0,0,1,57.50420886156945,57.50420886156945)"><svg viewBox="0 0 164.9915822768611 164.9915822768611" height="164.9915822768611" width="164.9915822768611"><g><circle r="82" cx="82.49579113843055" cy="82.49579113843055" fill="#000000" data-fill-palette-color="accent"></circle><svg xmlns="http://www.w3.org/2000/svg" xmlns:xlink="http://www.w3.org/1999/xlink" version="1.0" x="24.748737341529164" y="24.74873734152917" viewBox="1.1180000305175781 4.118575572967529 47.92100143432617 41.76354217529297" enable-background="new 0 0 50 50" xml:space="preserve" height="115.49410759380275" width="115.49410759380275" class="icon-o-0" data-fill-palette-color="quaternary" id="o-0"><g fill="#010536" data-fill-palette-color="quaternary"><g fill="#010536" data-fill-palette-color="quaternary"><polygon fill="#ffffff" points="10.821,24.951 21,32.193 21,39.035 1.118,24.891 21,11.118 21,17.9   " data-fill-palette-color="quaternary"></polygon></g><g fill="#010536" data-fill-palette-color="quaternary"><polygon fill="#ffffff" points="49.039,25.277 35.815,16.063 34.219,21.712 39.475,25.338 31.411,30.97 29,38.79 29,39.424   " data-fill-palette-color="quaternary"></polygon></g><rect x="25.577" y="3.983" transform="matrix(0.9606 0.278 -0.278 0.9606 8.0575 -6.8179)" fill="#ffffff" width="4.981" height="42.035" data-fill-palette-color="quaternary"></rect></g></svg></g></svg></g><g><path d="M26.417 114.429c-0.04 0.12-0.129 0.157-0.267 0.111v0c-0.416-0.138-0.748-0.499-0.996-1.084v0c-0.209-0.447-0.409-0.796-0.598-1.048-0.198-0.247-0.487-0.507-0.866-0.779-0.387-0.268-0.987-0.613-1.799-1.035v0l-12.877-6.708-0.04 0.123c-0.315 0.953-0.451 1.705-0.41 2.258 0.033 0.557 0.114 1 0.243 1.329 0.123 0.327 0.175 0.519 0.156 0.576v0c-0.04 0.12-0.151 0.15-0.334 0.089v0c-0.177-0.058-0.316-0.136-0.416-0.232v0c-0.621-0.45-1.014-1.178-1.179-2.183-0.167-1-0.003-2.247 0.491-3.743v0c0.229-0.694 0.562-1.543 0.998-2.546v0c0.626-1.556 0.992-2.496 1.098-2.817v0c0.381-1.154 0.564-2.035 0.548-2.642-0.021-0.616-0.017-0.964 0.009-1.047v0c0.025-0.076 0.058-0.124 0.101-0.145 0.042-0.021 0.101-0.019 0.176 0.006v0c0.24 0.079 0.479 0.33 0.718 0.751 0.232 0.42 0.373 0.991 0.42 1.713 0.048 0.723-0.082 1.551-0.39 2.485v0c-0.119 0.36-0.242 0.7-0.369 1.022-0.127 0.322-0.243 0.609-0.347 0.861v0c-0.384 0.888-0.639 1.521-0.764 1.899v0l6.808 3.539 1.853-5.611c0.052-0.158 0.148-0.214 0.286-0.168v0c0.139 0.046 0.332 0.246 0.579 0.6 0.245 0.361 0.442 0.769 0.592 1.224 0.144 0.453 0.16 0.85 0.048 1.192v0c-0.033 0.101-0.153 0.338-0.361 0.71v0c-0.418 0.652-0.73 1.288-0.933 1.906v0l-0.325 0.984 5.513 2.944c0.328 0.15 0.631 0.345 0.91 0.583 0.274 0.23 0.467 0.441 0.578 0.632v0l0.028 0.009c0.257-0.377 0.519-0.85 0.784-1.42 0.267-0.576 0.486-1.123 0.657-1.641v0c0.585-1.773 0.669-3.487 0.251-5.143v0c-0.004-0.071-0.014-0.148-0.029-0.23-0.015-0.082-0.013-0.151 0.006-0.208v0c0.046-0.139 0.167-0.176 0.362-0.112v0c0.423 0.14 0.782 0.556 1.078 1.248 0.302 0.695 0.479 1.516 0.53 2.463 0.053 0.941-0.065 1.85-0.355 2.727v0c-0.196 0.593-0.599 1.474-1.209 2.645v0c-0.441 0.869-0.721 1.483-0.839 1.842v0c-0.138 0.416-0.184 0.842-0.139 1.277 0.045 0.435 0.052 0.699 0.021 0.794z" fill="#000000" data-fill-palette-color="primary"></path><path d="M34.067 94.803c-0.09 0.163-0.191 0.213-0.301 0.152v0c-0.058-0.032-0.169-0.147-0.333-0.345-0.164-0.197-0.554-0.562-1.171-1.093v0c-0.747-0.68-1.569-1.383-2.466-2.109-0.891-0.722-2.363-1.869-4.417-3.44v0c-0.63-0.494-1.085-0.818-1.363-0.973v0c-0.238-0.132-0.388-0.143-0.45-0.032v0c-0.103 0.186-0.068 0.471 0.107 0.856 0.168 0.382 0.422 0.869 0.763 1.46v0c0.117 0.186 0.213 0.35 0.286 0.49 0.083 0.137 0.138 0.244 0.165 0.319 0.032 0.079 0.034 0.144 0.005 0.197v0c-0.084 0.151-0.227 0.17-0.43 0.057v0c-0.366-0.203-0.77-0.693-1.213-1.47-0.446-0.771-0.777-1.578-0.994-2.42-0.22-0.836-0.208-1.475 0.037-1.917v0c0.161-0.291 0.412-0.428 0.753-0.414 0.338 0.02 0.708 0.142 1.109 0.364v0c0.383 0.213 1.148 0.758 2.294 1.637v0l0.882 0.671 0.014-0.026c-1.093-1.783-1.806-3.326-2.14-4.628-0.337-1.296-0.292-2.331 0.137-3.103v0c0.203-0.366 0.466-0.566 0.789-0.6 0.317-0.037 0.74 0.091 1.268 0.384v0c0.517 0.287 1.195 0.769 2.035 1.448v0l0.698 0.569 0.034-0.061c-0.989-1.627-1.631-3.066-1.926-4.315-0.289-1.246-0.25-2.201 0.118-2.864v0c0.425-0.767 1.187-0.846 2.285-0.237v0c0.389 0.216 1.012 0.668 1.869 1.356v0l2.955 2.459c2.07 1.748 3.261 2.709 3.575 2.883v0c0.331 0.184 0.572 0.139 0.724-0.134v0c0.174-0.314 0.126-0.713-0.145-1.198-0.271-0.484-0.665-1.06-1.184-1.727v0c-0.161-0.188-0.212-0.338-0.15-0.448v0c0.061-0.11 0.202-0.104 0.423 0.018v0c0.169 0.093 0.312 0.184 0.43 0.272v0c0.586 0.492 1.059 1.096 1.421 1.814 0.356 0.714 0.566 1.411 0.629 2.092 0.069 0.684-0.009 1.229-0.235 1.636v0c-0.364 0.657-1.043 0.709-2.036 0.159v0c-0.75-0.416-2.086-1.457-4.011-3.125v0c-0.25-0.207-0.824-0.685-1.723-1.434-0.899-0.749-1.677-1.333-2.334-1.75v0c-0.314-0.174-0.559-0.272-0.737-0.294-0.174-0.028-0.323 0.068-0.445 0.288v0c-0.235 0.424-0.196 1.065 0.118 1.924 0.318 0.852 0.808 1.762 1.472 2.73 0.658 0.965 1.362 1.811 2.113 2.539v0l3.893 3.275c0.211 0.14 0.318 0.469 0.319 0.987 0.002 0.518-0.064 0.895-0.196 1.133v0c-0.142 0.256-0.323 0.322-0.544 0.2v0c-0.621-0.565-2.017-1.734-4.186-3.506-2.166-1.779-3.795-3.02-4.886-3.724v0l-0.279-0.155c-0.198-0.11-0.368-0.166-0.51-0.169-0.139-0.009-0.261 0.08-0.364 0.266v0c-0.274 0.494-0.201 1.26 0.219 2.297 0.423 1.032 1.042 2.093 1.858 3.184 0.825 1.088 1.636 1.948 2.432 2.58v0l2.151 1.774c0.409 0.371 0.694 0.913 0.854 1.624 0.16 0.712 0.138 1.25-0.065 1.617z" fill="#000000" data-fill-palette-color="primary"></path><path d="M47.638 72.835c-0.124 0.139-0.233 0.167-0.326 0.083v0c-0.05-0.044-0.133-0.18-0.25-0.409-0.117-0.228-0.418-0.669-0.905-1.323v0c-0.581-0.827-1.229-1.692-1.946-2.596-0.712-0.899-1.898-2.34-3.559-4.322v0c-0.507-0.619-0.88-1.035-1.118-1.247v0c-0.204-0.181-0.347-0.224-0.431-0.129v0c-0.141 0.159-0.169 0.445-0.084 0.859 0.081 0.409 0.223 0.94 0.426 1.591v0c0.073 0.207 0.131 0.388 0.173 0.54 0.051 0.152 0.082 0.268 0.091 0.348 0.014 0.084 0.002 0.148-0.038 0.193v0c-0.115 0.129-0.259 0.116-0.433-0.038v0c-0.313-0.278-0.6-0.845-0.862-1.7-0.267-0.85-0.414-1.71-0.442-2.579-0.032-0.864 0.119-1.485 0.455-1.862v0c0.221-0.248 0.496-0.328 0.826-0.239 0.326 0.094 0.66 0.293 1.002 0.597v0c0.328 0.291 0.955 0.991 1.882 2.098v0l0.713 0.848 0.02-0.023c-0.677-1.979-1.036-3.64-1.078-4.983-0.046-1.338 0.224-2.338 0.811-2.999v0c0.278-0.313 0.578-0.451 0.901-0.413 0.317 0.033 0.702 0.25 1.153 0.652v0c0.442 0.393 0.999 1.012 1.67 1.857v0l0.557 0.708 0.047-0.052c-0.61-1.804-0.922-3.348-0.938-4.632-0.01-1.279 0.237-2.202 0.74-2.769v0c0.582-0.656 1.343-0.566 2.282 0.268v0c0.333 0.296 0.842 0.873 1.528 1.731v0l2.347 3.045c1.638 2.157 2.591 3.355 2.86 3.594v0c0.283 0.252 0.528 0.261 0.735 0.027v0c0.238-0.268 0.278-0.668 0.12-1.2-0.158-0.532-0.418-1.18-0.778-1.945v0c-0.116-0.219-0.133-0.376-0.049-0.47v0c0.084-0.094 0.22-0.058 0.409 0.11v0c0.144 0.128 0.264 0.248 0.36 0.36v0c0.464 0.608 0.795 1.301 0.991 2.08 0.192 0.775 0.244 1.501 0.157 2.179-0.082 0.683-0.278 1.198-0.587 1.545v0c-0.499 0.561-1.173 0.465-2.021-0.29v0c-0.641-0.569-1.718-1.877-3.232-3.924v0c-0.199-0.257-0.655-0.848-1.369-1.776-0.714-0.927-1.346-1.666-1.895-2.217v0c-0.268-0.238-0.486-0.388-0.655-0.449-0.164-0.066-0.33-0.004-0.498 0.185v0c-0.322 0.363-0.423 0.997-0.304 1.903 0.124 0.901 0.404 1.896 0.84 2.985 0.431 1.085 0.934 2.065 1.508 2.94v0l3.084 4.046c0.175 0.183 0.208 0.527 0.096 1.032-0.111 0.505-0.257 0.86-0.438 1.063v0c-0.194 0.219-0.386 0.244-0.575 0.077v0c-0.483-0.687-1.589-2.132-3.319-4.336-1.726-2.209-3.044-3.776-3.956-4.701v0l-0.238-0.211c-0.169-0.15-0.323-0.242-0.461-0.277-0.134-0.039-0.272 0.021-0.413 0.18v0c-0.375 0.422-0.471 1.186-0.288 2.29 0.187 1.1 0.56 2.271 1.118 3.513 0.567 1.242 1.171 2.258 1.81 3.048v0l1.712 2.2c0.318 0.452 0.478 1.042 0.478 1.772 0.001 0.729-0.138 1.251-0.416 1.564z" fill="#000000" data-fill-palette-color="primary"></path><path d="M66.439 53.702c-0.853 0.645-1.893 0.157-3.119-1.464v0c-1.178-1.558-1.999-3.348-2.463-5.372-0.464-2.023-0.485-3.952-0.065-5.786 0.43-1.833 1.312-3.254 2.648-4.264v0c0.684-0.517 1.359-0.857 2.027-1.02v0c0.428 1.017 0.752 1.76 0.971 2.226v0l1.519 3.099c1.153 2.493 1.987 4.186 2.504 5.079v0c0.067 0.133 0.165 0.284 0.293 0.453v0c0.277 0.366 0.523 0.466 0.741 0.302v0c0.27-0.204 0.394-0.564 0.37-1.08-0.027-0.521-0.13-1.213-0.309-2.077v0c0.004-0.028-0.005-0.1-0.027-0.217-0.022-0.117-0.001-0.199 0.063-0.248v0c0.101-0.076 0.227-0.014 0.379 0.188v0l0.259 0.442c0.3 0.639 0.472 1.363 0.517 2.17 0.044 0.808-0.031 1.539-0.227 2.195-0.197 0.665-0.47 1.13-0.819 1.395v0c-0.583 0.441-1.235 0.184-1.956-0.77v0c-0.281-0.371-0.523-0.779-0.727-1.225v0l-1.226-2.496-0.023 0.018c0.258 2.004 0.264 3.791 0.017 5.359-0.246 1.569-0.695 2.6-1.347 3.093zM66.058 50.754c0.466-0.353 0.732-1.124 0.798-2.315 0.06-1.187-0.046-2.506-0.318-3.958-0.273-1.451-0.623-2.669-1.051-3.653v0l-0.809-1.912c-0.756 0.047-1.409 0.279-1.961 0.696v0c-0.721 0.545-1.065 1.455-1.033 2.73 0.032 1.275 0.325 2.628 0.881 4.057 0.56 1.434 1.198 2.626 1.916 3.574v0c0.317 0.419 0.603 0.698 0.858 0.837 0.246 0.139 0.486 0.12 0.719-0.056z" fill="#000000" data-fill-palette-color="primary"></path><path d="M81.798 43.207c-0.165 0.086-0.277 0.073-0.335-0.039v0c-0.04-0.077-0.085-0.263-0.135-0.559-0.047-0.29-0.157-0.78-0.33-1.469v0c-0.436-1.736-1.335-4.543-2.697-8.42v0c-0.255-0.759-0.456-1.28-0.603-1.562v0c-0.126-0.241-0.245-0.333-0.358-0.274v0c-0.318 0.166-0.501 0.971-0.548 2.412v0c-0.005 0.22-0.015 0.409-0.03 0.567-0.006 0.161-0.019 0.28-0.038 0.357-0.016 0.084-0.051 0.139-0.103 0.167v0c-0.153 0.08-0.279 0.026-0.378-0.162v0c-0.194-0.371-0.265-1.008-0.213-1.913 0.049-0.895 0.214-1.754 0.496-2.577 0.276-0.819 0.638-1.346 1.085-1.58v0c0.294-0.154 0.577-0.137 0.848 0.051 0.265 0.191 0.501 0.484 0.707 0.879v0c0.32 0.612 0.796 1.886 1.426 3.82v0l0.026-0.013c0.068-1.948 0.379-3.64 0.932-5.077 0.547-1.434 1.191-2.344 1.933-2.732v0c0.783-0.41 1.461-0.067 2.034 1.027v0c0.216 0.412 0.489 1.143 0.82 2.192v0l1.115 3.679c0.767 2.598 1.234 4.056 1.401 4.374v0c0.068 0.13 0.16 0.227 0.277 0.293 0.12 0.072 0.254 0.07 0.401-0.007v0c0.5-0.262 0.678-1.326 0.534-3.193v0c-0.055-0.234-0.017-0.385 0.112-0.452v0c0.112-0.059 0.226 0.024 0.343 0.248v0c0.089 0.171 0.159 0.325 0.209 0.464v0c0.219 0.733 0.279 1.5 0.181 2.301-0.107 0.798-0.322 1.499-0.643 2.103-0.319 0.609-0.681 1.02-1.087 1.232v0c-0.394 0.206-0.746 0.18-1.054-0.079-0.311-0.25-0.568-0.569-0.771-0.957v0c-0.437-0.836-0.992-2.462-1.663-4.877v0c-0.658-2.347-1.184-3.939-1.577-4.776v0c-0.158-0.345-0.305-0.568-0.44-0.67-0.139-0.107-0.329-0.098-0.57 0.029v0c-0.577 0.302-0.996 1.005-1.259 2.109-0.262 1.104-0.362 2.345-0.301 3.723 0.061 1.378 0.246 2.563 0.556 3.556v0l0.82 2.664c0.138 0.535 0.078 1.144-0.18 1.826-0.258 0.682-0.572 1.12-0.943 1.315z" fill="#000000" data-fill-palette-color="primary"></path><path d="M102.033 34.096c-0.836 0.266-1.454-0.231-1.854-1.491v0c-0.197-0.62-0.379-1.532-0.545-2.734v0l-0.944-6.486c-0.147-0.748-0.236-1.169-0.266-1.265v0c-0.097-0.304-0.224-0.431-0.383-0.38v0c-0.462 0.147-0.813 0.917-1.053 2.311v0c-0.012 0.094-0.032 0.251-0.06 0.469-0.028 0.218-0.066 0.363-0.113 0.433-0.041 0.069-0.093 0.113-0.156 0.134v0c-0.038 0.012-0.087-0.011-0.148-0.068-0.066-0.056-0.116-0.134-0.148-0.236v0c-0.127-0.399-0.1-1.028 0.08-1.887 0.18-0.859 0.478-1.665 0.894-2.417 0.424-0.748 0.906-1.208 1.444-1.379v0c0.317-0.101 0.613-0.045 0.889 0.166 0.275 0.206 0.485 0.539 0.632 1.002v0c0.095 0.298 0.148 0.532 0.161 0.702v0l1.403 9.279c0.053 0.297 0.091 0.483 0.115 0.559v0c0.133 0.418 0.358 0.576 0.674 0.476v0c0.658-0.209 1.23-0.879 1.714-2.009 0.491-1.132 0.833-2.412 1.028-3.84 0.196-1.422 0.234-2.629 0.113-3.623v0l-0.28-2.327c-0.063-0.768 0.089-1.419 0.456-1.954 0.367-0.535 0.759-0.869 1.176-1.002v0c0.165-0.052 0.263-0.028 0.296 0.074v0c0.018 0.057 0.013 0.184-0.015 0.381-0.028 0.197-0.023 0.422 0.016 0.675v0c0.114 1.323 0.481 4.372 1.099 9.145v0l0.125 1.017c0.082 0.741 0.148 1.19 0.199 1.348v0c0.091 0.285 0.225 0.399 0.401 0.343v0c0.317-0.101 0.59-0.47 0.819-1.107 0.225-0.629 0.362-1.283 0.412-1.961v0c0.05-0.26 0.116-0.403 0.198-0.429v0c0.12-0.038 0.21 0.034 0.268 0.218v0c0.068 0.215 0.107 0.412 0.115 0.591v0c0.088 0.76 0.022 1.516-0.198 2.269-0.221 0.753-0.53 1.403-0.929 1.948-0.398 0.545-0.816 0.887-1.253 1.026v0c-0.779 0.248-1.346-0.255-1.703-1.508v0c-0.133-0.55-0.244-1.317-0.333-2.299v0l-0.203-1.557-0.028 0.009c-0.511 1.989-1.144 3.658-1.901 5.007-0.754 1.355-1.492 2.148-2.214 2.377z" fill="#000000" data-fill-palette-color="primary"></path><path d="M122.475 29.008c-0.933 0.137-1.725-0.113-2.377-0.749-0.657-0.636-1.078-1.584-1.263-2.846v0c-0.226-1.538-0.099-3.236 0.381-5.092 0.479-1.863 1.214-3.465 2.206-4.806 0.985-1.34 2.07-2.096 3.253-2.27v0c1.078-0.158 1.713 0.417 1.905 1.725v0c0.155 1.058-0.005 2.139-0.481 3.243-0.468 1.109-1.172 2.129-2.11 3.06-0.931 0.929-1.988 1.692-3.17 2.287v0c0.164 1.117 0.463 1.899 0.898 2.347 0.435 0.447 1.007 0.618 1.717 0.513v0c0.743-0.109 1.391-0.449 1.946-1.02 0.548-0.564 0.979-1.292 1.291-2.184v0c0.047-0.135 0.094-0.249 0.141-0.343 0.053-0.095 0.132-0.15 0.238-0.166v0c0.164-0.024 0.265 0.089 0.301 0.339v0c0.082 0.559-0.095 1.296-0.531 2.213-0.437 0.91-1.049 1.728-1.836 2.455-0.779 0.732-1.615 1.164-2.51 1.295zM121.574 21.768c0.539-0.079 1.086-0.354 1.641-0.825 0.554-0.477 0.99-1.079 1.307-1.803 0.318-0.718 0.415-1.495 0.293-2.33v0c-0.143-0.973-0.556-1.409-1.239-1.309v0c-0.559 0.082-1.047 0.462-1.465 1.142-0.425 0.673-0.743 1.482-0.953 2.426-0.212 0.938-0.319 1.83-0.323 2.676v0c0.137 0.067 0.384 0.075 0.739 0.023z" fill="#000000" data-fill-palette-color="primary"></path><path d="M136.967 27.708c-0.399-0.001-0.687-0.197-0.866-0.589-0.172-0.386-0.258-0.871-0.257-1.456v0c0.001-0.399 0.041-0.87 0.122-1.415v0l1.873-12.384c0.45-2.843 0.988-5.041 1.615-6.594 0.634-1.547 1.389-2.665 2.268-3.355v0c0.506-0.398 1.031-0.689 1.576-0.875 0.545-0.192 1.383-0.423 2.512-0.693v0c0.525-0.105 0.861-0.188 1.007-0.248 0.146-0.066 0.239-0.099 0.279-0.099v0c0.146 0 0.219 0.087 0.219 0.259v0c0 0.08-0.047 0.206-0.14 0.379-0.093 0.166-0.243 0.342-0.449 0.527v0c-0.233 0.212-0.456 0.355-0.669 0.428-0.206 0.073-0.455 0.119-0.747 0.138v0c-1.216 0.124-2.097 0.498-2.643 1.122v0c-1.032 1.174-1.789 3.342-2.273 6.504v0l-2.315 14.795c-0.027 0.146-0.04 0.325-0.041 0.538v0c-0.001 0.458 0.135 0.688 0.408 0.689v0c0.631 0.001 1.367-0.928 2.206-2.787v0c0.087-0.232 0.203-0.348 0.35-0.349v0c0.146 0 0.219 0.147 0.218 0.439v0c-0.001 0.691-0.248 1.435-0.741 2.231-0.493 0.796-1.075 1.46-1.747 1.991-0.672 0.537-1.26 0.805-1.765 0.804z" fill="#000000" data-fill-palette-color="primary"></path><path d="M169.5 31.552c-2.043-0.538-3.229-1.684-3.556-3.441-0.334-1.757-0.27-3.516 0.193-5.276v0c0.544-2.069 1.566-4.108 3.063-6.119 1.491-2.012 3.216-3.567 5.175-4.666 1.959-1.099 3.889-1.398 5.791-0.898v0c1.863 0.49 3.017 1.563 3.46 3.219 0.444 1.656 0.383 3.556-0.181 5.702v0c-0.646 2.454-1.737 4.644-3.275 6.568-1.537 1.924-3.263 3.339-5.177 4.244-1.921 0.903-3.752 1.125-5.493 0.667zM171.193 30.173c1.279 0.337 2.549 0.063 3.812-0.821 1.261-0.877 2.382-2.135 3.363-3.772 0.981-1.638 1.714-3.379 2.199-5.223v0c0.528-2.005 0.651-3.727 0.371-5.169-0.282-1.434-1.03-2.311-2.245-2.631v0c-1.073-0.282-2.259-0.059-3.556 0.672-1.298 0.73-2.503 1.89-3.616 3.479-1.112 1.59-1.954 3.47-2.526 5.642v0c-0.575 2.184-0.666 3.954-0.273 5.308 0.394 1.347 1.218 2.186 2.471 2.515z" fill="#000000" data-fill-palette-color="primary"></path><path d="M187.121 37.433c-0.361-0.17-0.539-0.47-0.534-0.901 0.008-0.422 0.136-0.898 0.385-1.427v0c0.17-0.361 0.407-0.77 0.711-1.229v0l6.952-10.418c1.614-2.383 3.034-4.145 4.262-5.286 1.23-1.132 2.389-1.824 3.477-2.075v0c0.627-0.146 1.226-0.187 1.798-0.123 0.575 0.058 1.431 0.204 2.569 0.438v0c0.52 0.127 0.859 0.195 1.017 0.204 0.161 0.002 0.259 0.012 0.295 0.028v0c0.132 0.062 0.162 0.172 0.088 0.328v0c-0.034 0.072-0.13 0.167-0.287 0.283-0.155 0.111-0.365 0.206-0.631 0.287v0c-0.301 0.093-0.563 0.128-0.787 0.104-0.217-0.022-0.463-0.086-0.735-0.193v0c-1.154-0.404-2.11-0.439-2.869-0.105v0c-1.433 0.625-3.039 2.267-4.819 4.924v0l-8.376 12.414c-0.086 0.121-0.175 0.278-0.265 0.47v0c-0.195 0.415-0.17 0.68 0.076 0.796v0c0.571 0.269 1.631-0.26 3.181-1.587v0c0.177-0.174 0.332-0.229 0.465-0.167v0c0.132 0.062 0.136 0.226 0.011 0.49v0c-0.294 0.625-0.834 1.194-1.618 1.706-0.784 0.512-1.593 0.865-2.426 1.06-0.836 0.201-1.483 0.194-1.94-0.021z" fill="#000000" data-fill-palette-color="primary"></path><path d="M199.072 43.483c-0.909-0.564-0.827-1.71 0.245-3.437v0c1.03-1.66 2.405-3.07 4.126-4.23 1.721-1.16 3.513-1.874 5.376-2.141 1.865-0.258 3.508 0.054 4.931 0.937v0c0.728 0.452 1.289 0.96 1.681 1.524v0c-0.795 0.765-1.371 1.334-1.728 1.707v0l-2.346 2.532c-1.912 1.972-3.191 3.36-3.838 4.163v0c-0.1 0.11-0.206 0.256-0.318 0.436v0c-0.242 0.39-0.247 0.656-0.015 0.8v0c0.288 0.179 0.668 0.164 1.141-0.043 0.476-0.213 1.085-0.558 1.827-1.035v0c0.027-0.006 0.092-0.041 0.193-0.103 0.101-0.062 0.186-0.072 0.253-0.031v0c0.107 0.067 0.094 0.207-0.038 0.422v0l-0.319 0.4c-0.489 0.51-1.102 0.931-1.839 1.263-0.738 0.332-1.448 0.525-2.13 0.578-0.691 0.056-1.223-0.032-1.596-0.263v0c-0.621-0.385-0.616-1.086 0.014-2.102v0c0.245-0.395 0.539-0.768 0.882-1.119v0l1.888-2.041-0.025-0.016c-1.777 0.961-3.442 1.609-4.995 1.944-1.552 0.335-2.676 0.286-3.37-0.145zM201.686 42.068c0.497 0.308 1.313 0.279 2.448-0.088 1.129-0.37 2.322-0.944 3.577-1.721 1.256-0.777 2.266-1.541 3.031-2.294v0l1.494-1.443c-0.316-0.688-0.767-1.215-1.354-1.579v0c-0.768-0.476-1.741-0.471-2.92 0.018-1.179 0.488-2.335 1.249-3.468 2.281-1.137 1.038-2.019 2.062-2.646 3.073v0c-0.277 0.446-0.434 0.813-0.473 1.102-0.041 0.28 0.063 0.497 0.311 0.651z" fill="#000000" data-fill-palette-color="primary"></path><path d="M215.569 55.141c-0.138-0.125-0.149-0.251-0.033-0.38v0c0.053-0.059 0.2-0.137 0.44-0.233 0.24-0.097 0.439-0.198 0.598-0.306v0c0.535-0.502 1.063-1.041 1.584-1.617v0c0.606-0.67 1.727-2.003 3.363-4v0l0.671-0.831c0.679-0.909 1.119-1.554 1.321-1.936 0.207-0.377 0.192-0.673-0.045-0.887v0c-0.202-0.183-0.439-0.223-0.711-0.119-0.282 0.103-0.708 0.332-1.278 0.685v0c-0.305 0.208-0.519 0.256-0.642 0.145v0c-0.123-0.111-0.08-0.283 0.13-0.515v0c0.352-0.389 0.842-0.752 1.469-1.089 0.627-0.337 1.257-0.543 1.888-0.617 0.641-0.074 1.153 0.062 1.538 0.41v0c0.626 0.566 0.542 1.52-0.252 2.863v0c-0.755 1.27-2.374 3.308-4.858 6.114v0c3.027-1.069 5.755-2.302 8.182-3.699v0c0.598-0.166 1.132-0.275 1.6-0.327 0.477-0.052 0.763-0.036 0.856 0.049v0c0.123 0.111 0.009 0.362-0.343 0.751v0l-1.409 1.602-0.695 0.768-4.165 5.303c4.222-1.261 6.698-2.295 7.429-3.103v0c0.143-0.158 0.226-0.315 0.252-0.471 0.034-0.157 0.049-0.336 0.043-0.538-0.001-0.198 0.019-0.318 0.06-0.363v0c0.103-0.113 0.361-0.22 0.774-0.321 0.418-0.106 0.829-0.164 1.233-0.175 0.413-0.011 0.682 0.039 0.805 0.15v0c0.172 0.156 0.2 0.427 0.083 0.815-0.112 0.391-0.331 0.767-0.656 1.126v0c-0.294 0.325-0.682 0.601-1.165 0.828-0.487 0.222-1.576 0.643-3.267 1.264v0l-6.856 2.573c-0.771 0.288-1.452 0.461-2.042 0.519-0.594 0.063-1-0.004-1.216-0.2v0c-0.123-0.111-0.134-0.224-0.031-0.337v0c0.067-0.074 0.229-0.178 0.485-0.314v0c0.263-0.103 0.485-0.229 0.665-0.379 0.181-0.15 0.425-0.395 0.733-0.735v0c0.869-0.961 1.998-2.367 3.386-4.22v0c0.279-0.339 0.746-0.933 1.4-1.784v0l-0.023-0.021c-1.748 0.596-3.224 1.138-4.427 1.626-1.213 0.489-2.377 1.133-3.494 1.933v0c-0.563 0.216-1.192 0.337-1.887 0.362-0.7 0.021-1.198-0.102-1.493-0.369z" fill="#000000" data-fill-palette-color="primary"></path><path d="M231.764 71.603c-0.533-0.696-0.275-1.446 0.773-2.25v0c0.517-0.396 1.312-0.876 2.387-1.44v0l5.782-3.088c0.654-0.392 1.02-0.619 1.1-0.679v0c0.253-0.194 0.329-0.357 0.228-0.489v0c-0.295-0.385-1.139-0.454-2.532-0.207v0c-0.093 0.021-0.247 0.055-0.461 0.103-0.215 0.047-0.363 0.061-0.446 0.04-0.079-0.015-0.138-0.049-0.179-0.102v0c-0.024-0.032-0.019-0.086 0.015-0.161 0.03-0.081 0.087-0.154 0.171-0.219v0c0.332-0.255 0.933-0.443 1.802-0.565 0.869-0.122 1.728-0.115 2.577 0.021 0.848 0.145 1.444 0.442 1.787 0.89v0c0.202 0.264 0.25 0.561 0.145 0.894-0.1 0.328-0.343 0.639-0.728 0.934v0c-0.248 0.19-0.45 0.32-0.605 0.389v0l-8.254 4.467c-0.262 0.15-0.424 0.25-0.487 0.298v0c-0.348 0.267-0.421 0.532-0.219 0.796v0c0.42 0.548 1.244 0.859 2.471 0.931 1.231 0.078 2.552-0.034 3.961-0.337 1.404-0.298 2.553-0.672 3.447-1.122v0l2.094-1.052c0.701-0.32 1.365-0.398 1.993-0.234 0.628 0.164 1.075 0.419 1.341 0.768v0c0.105 0.137 0.115 0.238 0.031 0.302v0c-0.047 0.036-0.169 0.075-0.363 0.116-0.195 0.041-0.405 0.122-0.63 0.243v0c-1.206 0.556-3.95 1.935-8.231 4.136v0l-0.914 0.462c-0.669 0.329-1.069 0.543-1.201 0.644v0c-0.237 0.182-0.299 0.347-0.186 0.495v0c0.202 0.264 0.642 0.395 1.319 0.394 0.668-0.002 1.33-0.094 1.985-0.277v0c0.261-0.041 0.418-0.028 0.471 0.041v0c0.077 0.1 0.039 0.209-0.115 0.326v0c-0.179 0.137-0.352 0.24-0.517 0.308v0c-0.685 0.341-1.419 0.535-2.202 0.583-0.784 0.048-1.499-0.023-2.147-0.213-0.648-0.19-1.111-0.467-1.39-0.83v0c-0.497-0.649-0.217-1.353 0.841-2.114v0c0.472-0.312 1.156-0.676 2.05-1.094v0l1.396-0.718-0.019-0.024c-2.044 0.194-3.829 0.164-5.354-0.089-1.531-0.25-2.526-0.675-2.987-1.277z" fill="#000000" data-fill-palette-color="primary"></path><path d="M242.32 87.021c-0.086-0.165-0.073-0.277 0.039-0.335v0c0.077-0.04 0.263-0.084 0.56-0.134 0.29-0.046 0.78-0.155 1.47-0.326v0c1.737-0.432 4.546-1.324 8.426-2.677v0c0.76-0.253 1.281-0.453 1.563-0.6v0c0.242-0.126 0.333-0.245 0.276-0.357v0c-0.166-0.318-0.969-0.503-2.412-0.554v0c-0.22-0.005-0.409-0.016-0.566-0.031-0.161-0.006-0.28-0.019-0.358-0.039-0.083-0.016-0.139-0.051-0.166-0.104v0c-0.08-0.153-0.025-0.279 0.163-0.377v0c0.371-0.193 1.009-0.263 1.913-0.209 0.895 0.051 1.754 0.218 2.576 0.502 0.819 0.278 1.345 0.641 1.577 1.089v0c0.153 0.295 0.136 0.577-0.053 0.848-0.192 0.265-0.485 0.5-0.88 0.705v0c-0.613 0.319-1.888 0.791-3.824 1.417v0l0.014 0.026c1.948 0.073 3.639 0.387 5.074 0.943 1.432 0.55 2.342 1.197 2.728 1.94v0c0.408 0.784 0.064 1.461-1.032 2.031v0c-0.413 0.215-1.144 0.486-2.193 0.816v0l-3.682 1.107c-2.6 0.761-4.059 1.224-4.377 1.39v0c-0.13 0.067-0.228 0.16-0.294 0.276-0.072 0.12-0.07 0.254 0.006 0.401v0c0.261 0.501 1.324 0.681 3.192 0.542v0c0.234-0.054 0.385-0.017 0.452 0.113v0c0.058 0.112-0.025 0.226-0.249 0.342v0c-0.171 0.089-0.326 0.158-0.465 0.208v0c-0.733 0.217-1.501 0.275-2.301 0.176-0.798-0.109-1.498-0.325-2.101-0.648-0.608-0.32-1.018-0.683-1.23-1.09v0c-0.205-0.395-0.178-0.746 0.081-1.054 0.251-0.31 0.57-0.566 0.959-0.768v0c0.837-0.435 2.464-0.986 4.881-1.653v0c2.349-0.653 3.942-1.175 4.78-1.565v0c0.345-0.157 0.569-0.303 0.67-0.439 0.108-0.138 0.099-0.328-0.027-0.57v0c-0.301-0.578-1.003-0.999-2.106-1.263-1.104-0.264-2.345-0.368-3.723-0.31-1.378 0.058-2.564 0.24-3.557 0.547v0l-2.665 0.815c-0.536 0.136-1.144 0.075-1.826-0.185-0.682-0.259-1.119-0.575-1.313-0.946z" fill="#000000" data-fill-palette-color="primary"></path><path d="M268.118 103.113c-0.067-0.195 0-0.316 0.201-0.364v0l2.205-0.362c0.606-0.097 1.119-0.036 1.54 0.184 0.421 0.22 0.717 0.578 0.888 1.074v0l0.039 0.113c0.041 0.119 0.048 0.201 0.022 0.246-0.033 0.047-0.11 0.077-0.232 0.091v0l-2.164 0.39c-0.581 0.11-1.093 0.051-1.537-0.175-0.442-0.22-0.748-0.578-0.92-1.074v0zM251.379 106.942c-0.219-0.634 0.129-1.11 1.046-1.427v0c0.452-0.156 0.997-0.278 1.635-0.365v0l8.425-1.311c0.541-0.103 0.868-0.174 0.981-0.213v0c0.301-0.104 0.422-0.244 0.361-0.42v0c-0.083-0.239-0.37-0.459-0.862-0.662-0.494-0.209-1.214-0.371-2.161-0.486v0c-0.267 0.001-0.421-0.058-0.462-0.177v0c-0.041-0.119 0.035-0.213 0.23-0.28v0c0.477-0.165 1.16-0.162 2.048 0.008 0.889 0.171 1.713 0.472 2.475 0.905 0.763 0.439 1.237 0.925 1.422 1.459v0c0.213 0.615-0.117 1.074-0.99 1.376v0c-0.414 0.143-0.978 0.272-1.691 0.384v0l-9.123 1.427-0.409 0.068c-0.213 0.074-0.289 0.202-0.226 0.384v0c0.083 0.239 0.373 0.458 0.871 0.658 0.507 0.204 1.224 0.368 2.152 0.489v0c0.255 0.024 0.398 0.084 0.43 0.178v0c0.041 0.119-0.067 0.223-0.324 0.313v0c-0.458 0.159-1.121 0.152-1.989-0.019-0.87-0.177-1.684-0.479-2.443-0.905-0.759-0.426-1.224-0.888-1.396-1.384z" fill="#000000" data-fill-palette-color="primary"></path><path d="M12.032 182.227c-0.037-0.114 0.013-0.193 0.152-0.239v0c0.41-0.135 0.885-0.043 1.424 0.276v0c0.417 0.226 0.777 0.384 1.079 0.474 0.3 0.083 0.679 0.119 1.137 0.109 0.464-0.013 1.139-0.088 2.024-0.226v0l14.08-2.229-0.037-0.114c-0.309-0.94-0.641-1.618-0.995-2.033-0.353-0.415-0.673-0.716-0.957-0.902-0.291-0.184-0.446-0.304-0.465-0.361v0c-0.039-0.12 0.029-0.209 0.206-0.267v0c0.177-0.058 0.331-0.077 0.463-0.059v0c0.758-0.012 1.498 0.333 2.218 1.033 0.712 0.696 1.308 1.776 1.79 3.241v0c0.224 0.682 0.456 1.546 0.696 2.593v0c0.414 1.598 0.673 2.555 0.776 2.871v0c0.372 1.13 0.744 1.931 1.116 2.402 0.374 0.478 0.574 0.755 0.598 0.832v0c0.025 0.076 0.03 0.134 0.016 0.173-0.021 0.042-0.07 0.075-0.146 0.1v0c-0.24 0.079-0.574 0.021-1.001-0.174-0.434-0.193-0.88-0.56-1.338-1.102-0.458-0.542-0.839-1.273-1.142-2.195v0c-0.116-0.353-0.218-0.694-0.305-1.022-0.087-0.328-0.162-0.621-0.227-0.88v0c-0.221-0.927-0.393-1.577-0.515-1.95v0l-7.436 1.188 1.813 5.509c0.052 0.158 0.008 0.26-0.131 0.305v0c-0.133 0.044-0.403-0.004-0.812-0.141-0.403-0.14-0.793-0.348-1.17-0.623-0.383-0.273-0.63-0.576-0.74-0.91v0c-0.031-0.095-0.073-0.35-0.126-0.766v0c-0.056-0.765-0.183-1.45-0.383-2.057v0l-0.318-0.965-6.073 0.896c-0.349 0.066-0.699 0.087-1.05 0.062-0.357-0.022-0.637-0.077-0.84-0.164v0l-0.029 0.01c0.023 0.454 0.096 0.983 0.218 1.586 0.124 0.61 0.27 1.17 0.438 1.681v0c0.571 1.736 1.508 3.137 2.81 4.206v0c0.038 0.051 0.09 0.103 0.157 0.158 0.061 0.057 0.1 0.114 0.119 0.17v0c0.046 0.139-0.029 0.24-0.225 0.305v0c-0.41 0.135-0.936 0.014-1.577-0.362-0.646-0.368-1.264-0.909-1.857-1.624-0.592-0.715-1.03-1.504-1.314-2.369v0c-0.191-0.581-0.388-1.509-0.591-2.785v0c-0.158-0.948-0.295-1.599-0.411-1.952v0c-0.135-0.41-0.349-0.773-0.642-1.09-0.285-0.312-0.443-0.519-0.477-0.619z" fill="#000000" data-fill-palette-color="primary"></path><path d="M20.256 204.747c-0.087-0.157-0.075-0.266 0.035-0.327v0c0.052-0.029 0.204-0.063 0.455-0.104 0.248-0.031 0.756-0.164 1.523-0.397v0c0.952-0.268 1.965-0.585 3.038-0.951 1.064-0.368 2.785-0.997 5.164-1.886v0c0.738-0.271 1.244-0.483 1.517-0.634v0c0.233-0.129 0.32-0.245 0.262-0.35v0c-0.1-0.18-0.354-0.298-0.764-0.352-0.404-0.058-0.944-0.101-1.62-0.129v0c-0.214-0.003-0.399-0.007-0.554-0.013-0.155-0.005-0.271-0.017-0.349-0.034-0.078-0.018-0.132-0.053-0.161-0.105v0c-0.08-0.145-0.022-0.273 0.176-0.382v0c0.361-0.199 0.979-0.283 1.855-0.251 0.876 0.032 1.719 0.177 2.529 0.435 0.811 0.258 1.335 0.602 1.573 1.033v0c0.161 0.291 0.146 0.572-0.046 0.845-0.194 0.267-0.489 0.509-0.884 0.728v0c-0.378 0.209-1.227 0.561-2.548 1.055v0l-1.023 0.395 0.014 0.026c2.058 0.016 3.715 0.224 4.968 0.624 1.254 0.4 2.089 0.978 2.508 1.734v0c0.199 0.361 0.231 0.685 0.093 0.973-0.131 0.285-0.458 0.572-0.981 0.862v0c-0.506 0.28-1.263 0.592-2.272 0.937v0l-0.827 0.275 0.029 0.052c1.869 0.03 3.399 0.251 4.59 0.662 1.192 0.412 1.966 0.94 2.323 1.586v0c0.418 0.756 0.086 1.433-0.996 2.03v0c-0.378 0.209-1.08 0.491-2.106 0.846v0l-3.578 1.169c-2.538 0.819-3.959 1.311-4.261 1.479v0c-0.326 0.18-0.415 0.404-0.267 0.671v0c0.17 0.308 0.528 0.475 1.073 0.5 0.539 0.028 1.224 0.003 2.054-0.076v0c0.236-0.04 0.385-0.004 0.446 0.106v0c0.058 0.105-0.021 0.216-0.236 0.336v0c-0.163 0.09-0.313 0.162-0.451 0.214v0c-0.713 0.235-1.462 0.315-2.247 0.241-0.776-0.072-1.468-0.259-2.075-0.562-0.601-0.305-1.011-0.656-1.23-1.05v0c-0.357-0.645-0.05-1.236 0.921-1.774v0c0.738-0.408 2.304-0.981 4.698-1.719v0c0.296-0.096 0.995-0.322 2.095-0.68 1.091-0.36 1.98-0.703 2.665-1.029v0c0.308-0.17 0.519-0.325 0.632-0.463 0.116-0.133 0.115-0.307-0.004-0.522v0c-0.228-0.413-0.785-0.712-1.669-0.899-0.876-0.184-1.888-0.251-3.037-0.2-1.146 0.041-2.217 0.185-3.212 0.431v0l-4.754 1.535c-0.231 0.105-0.561 0.022-0.992-0.249-0.427-0.265-0.705-0.514-0.833-0.746v0c-0.141-0.256-0.105-0.443 0.11-0.562v0c0.794-0.226 2.493-0.778 5.097-1.656 2.608-0.872 4.489-1.582 5.644-2.129v0l0.27-0.149c0.198-0.109 0.337-0.221 0.419-0.334 0.078-0.119 0.069-0.266-0.027-0.441v0c-0.27-0.488-0.947-0.828-2.031-1.018-1.079-0.193-2.287-0.231-3.627-0.113-1.333 0.115-2.474 0.339-3.42 0.672v0l-2.583 0.87c-0.532 0.15-1.133 0.106-1.803-0.131-0.673-0.243-1.109-0.544-1.308-0.905z" fill="#000000" data-fill-palette-color="primary"></path><path d="M35.754 229.463c-0.119-0.134-0.131-0.243-0.037-0.327v0c0.045-0.04 0.185-0.106 0.422-0.2 0.236-0.084 0.702-0.324 1.4-0.719v0c0.871-0.469 1.791-0.999 2.758-1.589 0.959-0.591 2.502-1.579 4.63-2.964v0c0.661-0.425 1.109-0.742 1.343-0.949v0c0.199-0.176 0.259-0.309 0.18-0.398v0c-0.136-0.154-0.411-0.213-0.823-0.178-0.407 0.032-0.943 0.107-1.609 0.226v0c-0.21 0.044-0.391 0.08-0.543 0.108-0.152 0.028-0.269 0.042-0.349 0.042-0.08 0-0.14-0.023-0.179-0.067v0c-0.11-0.124-0.08-0.261 0.089-0.411v0c0.309-0.273 0.894-0.489 1.755-0.648 0.862-0.159 1.716-0.201 2.563-0.125 0.847 0.075 1.434 0.297 1.76 0.665v0c0.22 0.249 0.267 0.527 0.139 0.835-0.132 0.303-0.366 0.604-0.705 0.903v0c-0.323 0.286-1.076 0.814-2.257 1.584v0l-0.913 0.608 0.02 0.022c2.013-0.432 3.674-0.589 4.985-0.471 1.311 0.118 2.252 0.5 2.824 1.147v0c0.273 0.309 0.374 0.618 0.304 0.929-0.066 0.307-0.323 0.658-0.771 1.054v0c-0.433 0.383-1.104 0.853-2.014 1.409v0l-0.747 0.449 0.039 0.044c1.83-0.377 3.372-0.495 4.625-0.352 1.253 0.143 2.123 0.49 2.612 1.043v0c0.572 0.647 0.396 1.38-0.53 2.198v0c-0.323 0.286-0.947 0.714-1.872 1.283v0l-3.238 1.92c-2.3 1.351-3.579 2.141-3.838 2.37v0c-0.279 0.246-0.317 0.484-0.114 0.713v0c0.233 0.264 0.619 0.349 1.157 0.255 0.533-0.09 1.195-0.263 1.987-0.521v0c0.222-0.09 0.375-0.088 0.458 0.007v0c0.079 0.09 0.027 0.216-0.157 0.378v0c-0.139 0.123-0.27 0.226-0.393 0.308v0c-0.645 0.384-1.359 0.625-2.141 0.723-0.773 0.099-1.489 0.066-2.147-0.096-0.653-0.167-1.13-0.42-1.429-0.758v0c-0.489-0.552-0.317-1.196 0.513-1.931v0c0.632-0.559 2.036-1.459 4.211-2.701v0c0.269-0.158 0.901-0.531 1.897-1.119 0.987-0.589 1.779-1.117 2.377-1.584v0c0.264-0.233 0.436-0.43 0.517-0.59 0.085-0.155 0.046-0.324-0.118-0.508v0c-0.313-0.353-0.921-0.525-1.825-0.514-0.895 0.011-1.898 0.166-3.008 0.465-1.11 0.29-2.123 0.663-3.04 1.12v0l-4.307 2.532c-0.202 0.152-0.543 0.143-1.022-0.027-0.475-0.166-0.8-0.348-0.976-0.547v0c-0.194-0.219-0.198-0.41-0.014-0.573v0c0.725-0.393 2.264-1.302 4.614-2.725 2.355-1.418 4.037-2.52 5.046-3.306v0l0.231-0.204c0.169-0.15 0.281-0.289 0.337-0.417 0.051-0.133 0.01-0.275-0.123-0.424v0c-0.37-0.418-1.105-0.602-2.204-0.552-1.095 0.046-2.283 0.272-3.564 0.678-1.277 0.402-2.341 0.869-3.192 1.4v0l-2.332 1.411c-0.487 0.262-1.083 0.35-1.788 0.264-0.71-0.091-1.201-0.29-1.474-0.598z" fill="#000000" data-fill-palette-color="primary"></path><path d="M56.721 250.652c-0.836-0.635-0.65-1.746 0.556-3.333v0c1.158-1.523 2.632-2.777 4.423-3.76 1.787-0.978 3.604-1.508 5.452-1.589 1.848-0.081 3.427 0.377 4.738 1.374v0c0.672 0.511 1.17 1.057 1.497 1.639v0c-0.847 0.675-1.459 1.178-1.836 1.508v0l-2.536 2.266c-2.052 1.745-3.434 2.981-4.146 3.708v0c-0.104 0.104-0.219 0.238-0.344 0.403v0c-0.273 0.36-0.302 0.622-0.084 0.786v0c0.259 0.197 0.631 0.213 1.116 0.048 0.486-0.156 1.114-0.434 1.884-0.833v0c0.028-0.004 0.091-0.031 0.188-0.083 0.107-0.052 0.194-0.053 0.263 0v0c0.095 0.072 0.068 0.206-0.08 0.402v0l-0.349 0.361c-0.526 0.451-1.163 0.806-1.91 1.063-0.752 0.254-1.468 0.378-2.147 0.371-0.675-0.012-1.184-0.149-1.529-0.41v0c-0.571-0.434-0.501-1.119 0.211-2.056v0c0.273-0.36 0.593-0.697 0.957-1.012v0l2.043-1.815-0.023-0.018c-1.833 0.776-3.523 1.253-5.068 1.43-1.549 0.183-2.641 0.033-3.276-0.45zM59.403 249.512c0.46 0.35 1.26 0.395 2.401 0.135 1.136-0.254 2.355-0.705 3.656-1.352 1.302-0.637 2.361-1.289 3.176-1.954v0l1.597-1.277c-0.243-0.702-0.634-1.258-1.173-1.668v0c-0.709-0.539-1.664-0.622-2.865-0.25-1.192 0.371-2.39 1.008-3.594 1.912-1.208 0.909-2.167 1.829-2.874 2.76v0c-0.314 0.413-0.502 0.753-0.565 1.022-0.067 0.275 0.013 0.498 0.241 0.672z" fill="#000000" data-fill-palette-color="primary"></path><path d="M74.283 262.592c-0.159-0.084-0.209-0.181-0.15-0.293v0c0.037-0.071 0.159-0.209 0.365-0.415 0.212-0.204 0.55-0.567 1.013-1.089v0c1.16-1.319 2.925-3.611 5.296-6.875v0c0.468-0.632 0.774-1.086 0.92-1.363v0c0.124-0.235 0.133-0.381 0.027-0.436v0c-0.312-0.164-1.064 0.138-2.257 0.907v0c-0.181 0.115-0.337 0.213-0.47 0.293-0.132 0.08-0.236 0.135-0.311 0.163-0.075 0.028-0.139 0.028-0.191 0v0c-0.147-0.077-0.174-0.204-0.082-0.38v0c0.192-0.365 0.666-0.78 1.422-1.246 0.756-0.466 1.543-0.813 2.362-1.043 0.819-0.23 1.446-0.23 1.881-0.001v0c0.294 0.155 0.439 0.393 0.435 0.714-0.013 0.324-0.12 0.677-0.32 1.059v0c-0.316 0.6-1.077 1.697-2.284 3.291v0l0.026 0.014c1.611-1.036 3.152-1.731 4.621-2.084 1.464-0.356 2.56-0.342 3.289 0.042v0c0.764 0.402 0.863 1.141 0.297 2.217v0c-0.21 0.4-0.647 1.03-1.309 1.89v0l-2.348 2.942c-1.678 2.075-2.597 3.265-2.758 3.571v0c-0.068 0.129-0.096 0.261-0.084 0.395 0.012 0.134 0.092 0.24 0.238 0.317v0c0.494 0.26 1.451-0.19 2.872-1.349v0c0.158-0.172 0.302-0.224 0.432-0.156v0c0.106 0.056 0.102 0.192-0.013 0.41v0c-0.087 0.165-0.173 0.307-0.259 0.427v0c-0.467 0.588-1.052 1.064-1.755 1.43-0.706 0.357-1.392 0.577-2.06 0.662-0.67 0.075-1.205 0.008-1.605-0.203v0c-0.382-0.201-0.557-0.496-0.525-0.885 0.032-0.389 0.148-0.774 0.349-1.156v0c0.433-0.823 1.436-2.18 3.009-4.07v0c1.527-1.846 2.522-3.159 2.984-3.936v0c0.191-0.32 0.29-0.565 0.296-0.734 0.01-0.175-0.103-0.325-0.338-0.448v0c-0.564-0.297-1.366-0.242-2.406 0.164-1.04 0.406-2.101 1.019-3.186 1.837-1.081 0.813-1.939 1.622-2.573 2.429v0l-1.681 2.145c-0.362 0.417-0.889 0.711-1.578 0.881-0.696 0.167-1.226 0.154-1.591-0.038z" fill="#000000" data-fill-palette-color="primary"></path><path d="M97.007 272.792c-0.822-0.264-1.036-1.012-0.64-2.246v0c0.195-0.607 0.57-1.439 1.124-2.497v0l2.938-5.735c0.307-0.676 0.477-1.064 0.51-1.166v0c0.093-0.291 0.061-0.462-0.098-0.512v0c-0.449-0.144-1.166 0.275-2.15 1.257v0c-0.069 0.062-0.178 0.173-0.328 0.335-0.141 0.157-0.251 0.251-0.33 0.281-0.071 0.026-0.135 0.03-0.192 0.011v0c-0.044-0.014-0.075-0.059-0.093-0.134-0.016-0.082-0.007-0.173 0.025-0.275v0c0.126-0.392 0.506-0.881 1.14-1.466 0.628-0.587 1.323-1.058 2.085-1.413 0.765-0.362 1.41-0.459 1.935-0.291v0c0.316 0.101 0.524 0.314 0.622 0.639 0.105 0.327 0.085 0.714-0.059 1.164v0c-0.093 0.291-0.184 0.51-0.273 0.656v0l-4.166 8.229c-0.125 0.26-0.2 0.428-0.224 0.504v0c-0.132 0.411-0.043 0.667 0.267 0.766v0c0.652 0.209 1.493 0.001 2.523-0.625 1.033-0.632 2.032-1.463 2.997-2.493 0.971-1.028 1.694-1.976 2.167-2.842v0l1.096-2.014c0.383-0.652 0.875-1.087 1.476-1.306 0.6-0.219 1.106-0.263 1.517-0.131v0c0.152 0.049 0.213 0.12 0.182 0.215v0c-0.02 0.063-0.095 0.165-0.223 0.305-0.129 0.14-0.253 0.32-0.372 0.541v0c-0.661 1.127-2.104 3.777-4.327 7.947v0l-0.472 0.885c-0.36 0.645-0.566 1.047-0.617 1.205v0c-0.087 0.272-0.042 0.436 0.135 0.493v0c0.31 0.099 0.738-0.039 1.285-0.415 0.54-0.378 1.021-0.824 1.443-1.337v0c0.189-0.177 0.322-0.253 0.398-0.229v0c0.12 0.039 0.152 0.146 0.095 0.324v0c-0.069 0.215-0.148 0.396-0.236 0.542v0c-0.364 0.658-0.849 1.224-1.456 1.699-0.606 0.476-1.225 0.818-1.857 1.027-0.626 0.211-1.154 0.248-1.584 0.11v0c-0.766-0.245-0.935-0.969-0.507-2.172v0c0.208-0.519 0.555-1.197 1.039-2.032v0l0.728-1.358-0.029-0.009c-1.54 1.299-2.997 2.276-4.372 2.931-1.379 0.646-2.42 0.857-3.122 0.632z" fill="#000000" data-fill-palette-color="primary"></path><path d="M119.923 278.496c-0.913-0.136-1.587-0.596-2.021-1.379-0.434-0.783-0.559-1.796-0.375-3.038v0c0.224-1.505 0.825-3.061 1.804-4.668 0.973-1.615 2.116-2.913 3.43-3.893 1.308-0.981 2.544-1.385 3.707-1.211v0c1.058 0.157 1.492 0.877 1.301 2.158v0c-0.155 1.038-0.612 2.011-1.372 2.919-0.759 0.901-1.708 1.66-2.847 2.277-1.145 0.609-2.359 1.026-3.642 1.251v0c-0.163 1.097-0.1 1.916 0.188 2.456 0.282 0.546 0.767 0.87 1.458 0.973v0c0.736 0.11 1.445-0.027 2.126-0.409 0.674-0.377 1.288-0.94 1.843-1.69v0c0.077-0.109 0.151-0.203 0.223-0.279 0.071-0.07 0.159-0.097 0.264-0.082v0c0.164 0.024 0.228 0.158 0.192 0.401v0c-0.082 0.552-0.459 1.191-1.131 1.917-0.673 0.733-1.481 1.331-2.424 1.796-0.942 0.464-1.85 0.631-2.724 0.501zM121.135 271.433c0.526 0.078 1.115-0.025 1.77-0.311 0.66-0.285 1.243-0.722 1.746-1.312 0.504-0.59 0.817-1.292 0.939-2.107v0c0.143-0.959-0.121-1.489-0.792-1.589v0c-0.552-0.082-1.122 0.135-1.709 0.652-0.587 0.517-1.114 1.188-1.579 2.012-0.465 0.824-0.821 1.634-1.067 2.431v0c0.113 0.097 0.344 0.172 0.692 0.224z" fill="#000000" data-fill-palette-color="primary"></path><path d="M136.842 280c-0.392 0-0.674-0.189-0.847-0.568-0.173-0.385-0.259-0.864-0.259-1.435v0c0-0.392 0.04-0.857 0.119-1.395v0l1.824-12.158c0.432-2.797 0.957-4.956 1.574-6.478 0.618-1.521 1.359-2.624 2.222-3.309v0c0.492-0.385 1.003-0.671 1.535-0.857 0.538-0.186 1.362-0.412 2.472-0.677v0c0.518-0.106 0.847-0.189 0.986-0.25 0.146-0.06 0.239-0.09 0.279-0.089v0c0.146 0 0.219 0.08 0.219 0.239v0c0 0.086-0.046 0.209-0.139 0.369-0.093 0.166-0.242 0.342-0.448 0.528v0c-0.226 0.206-0.442 0.345-0.648 0.418-0.206 0.073-0.452 0.12-0.738 0.14v0c-1.196 0.12-2.06 0.488-2.591 1.106v0c-1.01 1.156-1.751 3.285-2.222 6.388v0l-2.262 14.54c-0.02 0.146-0.03 0.322-0.03 0.528v0c0 0.452 0.136 0.678 0.409 0.678v0c0.618 0 1.335-0.917 2.152-2.751v0c0.086-0.226 0.199-0.339 0.339-0.339v0c0.146 0 0.219 0.143 0.22 0.429v0c0 0.684-0.242 1.415-0.728 2.192-0.478 0.784-1.05 1.438-1.714 1.964-0.658 0.525-1.232 0.787-1.724 0.787z" fill="#000000" data-fill-palette-color="primary"></path><path d="M173.54 275.641c-2.011 0.529-3.581 0.125-4.71-1.213-1.13-1.344-1.923-2.881-2.377-4.609v0c-0.534-2.03-0.649-4.267-0.345-6.711 0.305-2.444 1.027-4.605 2.168-6.486 1.145-1.888 2.652-3.079 4.522-3.57v0c1.831-0.482 3.334-0.122 4.509 1.08 1.175 1.202 2.04 2.857 2.595 4.964v0c0.634 2.409 0.76 4.805 0.377 7.186-0.381 2.388-1.172 4.434-2.373 6.138-1.202 1.697-2.658 2.771-4.366 3.221zM174.325 273.651c1.253-0.33 2.204-1.178 2.854-2.544 0.652-1.36 1.002-2.978 1.052-4.852 0.049-1.875-0.165-3.718-0.641-5.53v0c-0.519-1.972-1.246-3.506-2.18-4.6-0.94-1.092-2.008-1.481-3.203-1.166v0c-1.054 0.277-1.959 1.041-2.715 2.291-0.755 1.257-1.223 2.833-1.403 4.729-0.179 1.902 0.011 3.917 0.57 6.043v0c0.565 2.146 1.342 3.7 2.33 4.663 0.99 0.969 2.102 1.291 3.336 0.966z" fill="#000000" data-fill-palette-color="primary"></path><path d="M193.889 268.754c-0.355 0.167-0.691 0.116-1.009-0.154-0.32-0.275-0.602-0.671-0.845-1.188v0c-0.167-0.355-0.329-0.792-0.486-1.313v0l-3.528-11.777c-0.8-2.715-1.245-4.892-1.334-6.531-0.089-1.64 0.112-2.953 0.602-3.94v0c0.281-0.558 0.622-1.034 1.023-1.429 0.408-0.397 1.057-0.953 1.948-1.666v0c0.424-0.317 0.686-0.532 0.786-0.646 0.107-0.116 0.178-0.183 0.215-0.2v0c0.132-0.062 0.232-0.021 0.3 0.123v0c0.037 0.078 0.047 0.209 0.031 0.394-0.013 0.19-0.074 0.413-0.181 0.668v0c-0.117 0.283-0.253 0.501-0.408 0.655-0.155 0.154-0.358 0.301-0.608 0.44v0c-1.031 0.617-1.655 1.319-1.873 2.105v0c-0.421 1.476-0.185 3.718 0.71 6.726v0l4.145 14.118c0.044 0.141 0.11 0.304 0.198 0.491v0c0.192 0.409 0.412 0.555 0.658 0.439v0c0.559-0.263 0.818-1.398 0.776-3.405v0c-0.018-0.241 0.036-0.391 0.163-0.451v0c0.132-0.062 0.259 0.036 0.381 0.294v0c0.291 0.619 0.383 1.384 0.275 2.294-0.099 0.913-0.337 1.748-0.715 2.506-0.372 0.755-0.78 1.237-1.224 1.447z" fill="#000000" data-fill-palette-color="primary"></path><path d="M207.564 261.755c-0.891 0.554-1.863-0.015-2.916-1.707v0c-1.011-1.625-1.656-3.449-1.938-5.473-0.277-2.018-0.125-3.905 0.458-5.66 0.583-1.755 1.574-3.068 2.973-3.938v0c0.716-0.446 1.404-0.717 2.064-0.814v0c0.329 1.032 0.581 1.783 0.756 2.253v0l1.213 3.177c0.899 2.539 1.561 4.271 1.987 5.195v0c0.06 0.135 0.145 0.289 0.254 0.464v0c0.239 0.384 0.474 0.503 0.705 0.36v0c0.276-0.172 0.424-0.514 0.441-1.026 0.027-0.51-0.008-1.196-0.106-2.058v0c0.006-0.027 0.003-0.096-0.01-0.205-0.011-0.118 0.02-0.2 0.093-0.246v0c0.102-0.063 0.217 0.01 0.347 0.218v0l0.213 0.455c0.234 0.653 0.338 1.374 0.313 2.164-0.031 0.794-0.17 1.506-0.419 2.138-0.252 0.626-0.561 1.053-0.928 1.282v0c-0.609 0.379-1.224 0.069-1.845-0.93v0c-0.239-0.384-0.44-0.802-0.605-1.255v0l-0.968-2.555-0.025 0.016c0.072 1.99-0.085 3.738-0.47 5.245-0.381 1.513-0.911 2.479-1.587 2.9zM207.454 258.842c0.491-0.305 0.818-1.037 0.982-2.195 0.167-1.152 0.181-2.452 0.04-3.897-0.131-1.444-0.363-2.665-0.695-3.664v0l-0.624-1.948c-0.742-0.023-1.401 0.144-1.977 0.502v0c-0.756 0.47-1.174 1.333-1.254 2.588-0.078 1.246 0.091 2.592 0.506 4.039 0.419 1.453 0.937 2.676 1.554 3.669v0c0.274 0.44 0.525 0.737 0.755 0.892 0.233 0.16 0.47 0.165 0.713 0.014z" fill="#000000" data-fill-palette-color="primary"></path><path d="M226.303 248.369c-0.133 0.12-0.255 0.119-0.366-0.004v0c-0.054-0.059-0.114-0.21-0.183-0.453-0.068-0.243-0.15-0.447-0.245-0.612v0c-0.442-0.577-0.917-1.146-1.426-1.707v0c-0.593-0.655-1.784-1.88-3.572-3.675v0l-0.761-0.736c-0.819-0.755-1.406-1.25-1.762-1.483-0.35-0.238-0.641-0.253-0.873-0.043v0c-0.197 0.178-0.258 0.408-0.182 0.689 0.076 0.281 0.259 0.721 0.549 1.318v0c0.173 0.31 0.198 0.52 0.075 0.632v0c-0.123 0.112-0.287 0.054-0.492-0.172v0c-0.344-0.379-0.65-0.895-0.919-1.548-0.269-0.644-0.41-1.278-0.421-1.905-0.012-0.626 0.175-1.113 0.558-1.461v0c0.606-0.549 1.528-0.372 2.768 0.531v0c1.166 0.862 3 2.643 5.501 5.343v0c-0.747-3.071-1.685-5.856-2.813-8.357v0c-0.107-0.603-0.16-1.137-0.161-1.603-0.01-0.466 0.032-0.742 0.125-0.826v0c0.118-0.107 0.349 0.029 0.693 0.408v0l1.434 1.538 0.683 0.753 4.784 4.581c-0.83-4.25-1.605-6.772-2.324-7.564v0c-0.138-0.153-0.282-0.251-0.43-0.297-0.148-0.045-0.321-0.077-0.517-0.096-0.197-0.01-0.318-0.039-0.362-0.088v0c-0.094-0.103-0.17-0.366-0.23-0.787-0.055-0.417-0.07-0.824-0.046-1.223 0.024-0.399 0.098-0.654 0.222-0.765v0c0.167-0.152 0.438-0.155 0.811-0.01 0.369 0.15 0.714 0.402 1.036 0.757v0c0.29 0.32 0.519 0.726 0.687 1.219 0.173 0.498 0.479 1.602 0.917 3.311v0l1.852 6.956c0.206 0.782 0.309 1.464 0.309 2.047 0 0.583-0.107 0.971-0.318 1.163v0c-0.123 0.112-0.234 0.113-0.332 0.005v0c-0.067-0.074-0.15-0.245-0.25-0.513v0c-0.081-0.267-0.185-0.496-0.312-0.686-0.132-0.185-0.35-0.445-0.653-0.78v0c-0.857-0.945-2.119-2.19-3.789-3.735v0c-0.31-0.302-0.847-0.815-1.61-1.54v0l-0.022 0.02c0.412 1.77 0.796 3.268 1.154 4.495 0.368 1.227 0.885 2.426 1.552 3.597v0c0.164 0.577 0.223 1.206 0.176 1.885-0.052 0.684-0.224 1.158-0.515 1.421z" fill="#000000" data-fill-palette-color="primary"></path><path d="M244.379 229.81c-0.525 0.686-1.302 0.635-2.331-0.152v0c-0.507-0.388-1.164-1.02-1.973-1.899v0l-4.414-4.694c-0.533-0.517-0.842-0.807-0.926-0.872v0c-0.243-0.186-0.415-0.213-0.516-0.081v0c-0.287 0.375-0.133 1.191 0.461 2.448v0c0.035 0.085 0.103 0.226 0.205 0.421 0.101 0.186 0.152 0.321 0.154 0.406 0.001 0.076-0.017 0.137-0.054 0.185v0c-0.028 0.037-0.081 0.051-0.157 0.042-0.082-0.013-0.166-0.051-0.251-0.116v0c-0.327-0.25-0.66-0.772-0.997-1.566-0.342-0.789-0.552-1.602-0.631-2.44-0.084-0.842 0.042-1.482 0.378-1.92v0c0.202-0.264 0.472-0.387 0.81-0.371 0.343 0.011 0.701 0.16 1.076 0.447v0c0.243 0.186 0.418 0.345 0.526 0.478v0l6.35 6.69c0.203 0.205 0.336 0.332 0.399 0.38v0c0.343 0.262 0.613 0.264 0.811 0.006v0c0.416-0.543 0.502-1.406 0.26-2.587-0.248-1.185-0.695-2.405-1.34-3.66-0.642-1.261-1.291-2.259-1.949-2.996v0l-1.528-1.709c-0.485-0.58-0.729-1.19-0.734-1.829-0.005-0.639 0.124-1.13 0.387-1.473v0c0.097-0.127 0.185-0.16 0.264-0.099v0c0.053 0.04 0.124 0.145 0.212 0.313 0.089 0.168 0.217 0.346 0.384 0.531v0c0.84 1.002 2.85 3.251 6.031 6.747v0l0.674 0.742c0.486 0.556 0.795 0.885 0.928 0.986v0c0.227 0.174 0.397 0.187 0.509 0.039v0c0.198-0.259 0.211-0.708 0.041-1.349-0.175-0.636-0.433-1.239-0.774-1.81v0c-0.103-0.238-0.13-0.388-0.081-0.451v0c0.077-0.1 0.189-0.094 0.337 0.019v0c0.179 0.137 0.323 0.272 0.43 0.405v0c0.497 0.564 0.867 1.212 1.112 1.942 0.244 0.731 0.358 1.429 0.342 2.094-0.012 0.66-0.155 1.17-0.429 1.529v0c-0.488 0.638-1.227 0.554-2.216-0.253v0c-0.419-0.371-0.941-0.925-1.565-1.661v0l-1.033-1.142-0.018 0.024c0.706 1.887 1.136 3.588 1.29 5.103 0.145 1.516-0.007 2.567-0.454 3.153z" fill="#000000" data-fill-palette-color="primary"></path><path d="M256.4 212.036c-0.083 0.159-0.18 0.21-0.292 0.152v0c-0.071-0.037-0.21-0.158-0.418-0.363-0.205-0.211-0.57-0.547-1.094-1.007v0c-1.325-1.152-3.627-2.905-6.904-5.258v0c-0.635-0.464-1.091-0.768-1.368-0.912v0c-0.236-0.122-0.381-0.131-0.436-0.025v0c-0.162 0.313 0.144 1.063 0.919 2.252v0c0.116 0.18 0.215 0.336 0.296 0.468 0.081 0.132 0.136 0.235 0.165 0.31 0.029 0.075 0.029 0.139 0.001 0.192v0c-0.077 0.147-0.203 0.175-0.38 0.083v0c-0.366-0.19-0.783-0.661-1.253-1.414-0.47-0.753-0.822-1.538-1.056-2.357-0.234-0.818-0.238-1.445-0.011-1.881v0c0.153-0.295 0.39-0.441 0.711-0.439 0.324 0.011 0.677 0.116 1.06 0.315v0c0.601 0.312 1.703 1.068 3.304 2.266v0l0.014-0.027c-1.045-1.606-1.748-3.142-2.109-4.61-0.364-1.462-0.356-2.558 0.023-3.289v0c0.398-0.766 1.137-0.87 2.216-0.309v0c0.401 0.208 1.033 0.641 1.896 1.299v0l2.956 2.332c2.084 1.666 3.28 2.579 3.586 2.738v0c0.13 0.067 0.262 0.095 0.395 0.082 0.134-0.013 0.239-0.093 0.316-0.24v0c0.257-0.495-0.198-1.45-1.365-2.865v0c-0.173-0.157-0.226-0.301-0.158-0.43v0c0.055-0.106 0.192-0.103 0.41 0.011v0c0.165 0.086 0.308 0.171 0.428 0.256v0c0.59 0.464 1.07 1.046 1.44 1.747 0.361 0.704 0.585 1.389 0.673 2.056 0.079 0.67 0.014 1.205-0.194 1.606v0c-0.199 0.383-0.493 0.56-0.882 0.53-0.389-0.03-0.775-0.144-1.158-0.343v0c-0.825-0.429-2.188-1.424-4.086-2.986v0c-1.855-1.517-3.172-2.505-3.953-2.963v0c-0.321-0.189-0.566-0.286-0.735-0.292-0.175-0.009-0.324 0.105-0.447 0.341v0c-0.294 0.566-0.235 1.368 0.177 2.405 0.412 1.037 1.03 2.096 1.855 3.176 0.819 1.076 1.633 1.93 2.443 2.56v0l2.154 1.669c0.419 0.36 0.716 0.885 0.89 1.573 0.171 0.695 0.161 1.225-0.029 1.591z" fill="#000000" data-fill-palette-color="primary"></path><path d="M251.081 182.806c-0.067 0.195-0.195 0.249-0.383 0.163v0l-1.916-1.05c-0.531-0.295-0.892-0.655-1.082-1.079-0.191-0.424-0.203-0.878-0.037-1.362v0l0.042-0.122c0.039-0.113 0.083-0.179 0.131-0.197 0.049-0.018 0.129 0.002 0.242 0.062v0l1.897 1.012c0.518 0.27 0.882 0.623 1.089 1.06 0.206 0.443 0.224 0.91 0.055 1.4v0zM266.335 189.988c-0.214 0.622-0.767 0.779-1.659 0.472v0c-0.452-0.156-0.95-0.394-1.493-0.714v0l-7.303-4.075c-0.481-0.257-0.781-0.406-0.9-0.447v0c-0.289-0.1-0.464-0.061-0.524 0.114v0c-0.08 0.232 0.008 0.579 0.264 1.04 0.258 0.454 0.719 1.014 1.382 1.678v0c0.204 0.162 0.287 0.299 0.248 0.412v0c-0.041 0.119-0.159 0.145-0.353 0.078v0c-0.471-0.162-0.999-0.579-1.583-1.251-0.586-0.666-1.04-1.398-1.361-2.197-0.324-0.793-0.395-1.454-0.214-1.982v0c0.208-0.603 0.739-0.757 1.593-0.463v0c0.408 0.141 0.922 0.384 1.54 0.731v0l7.911 4.421 0.367 0.19c0.214 0.074 0.351 0.022 0.411-0.154v0c0.08-0.232-0.014-0.581-0.283-1.046-0.264-0.456-0.719-1.014-1.363-1.671v0c-0.179-0.174-0.252-0.308-0.22-0.402v0c0.041-0.119 0.187-0.136 0.438-0.05v0c0.452 0.156 0.961 0.566 1.526 1.232 0.567 0.659 1.014 1.382 1.34 2.169 0.326 0.787 0.405 1.425 0.236 1.915z" fill="#000000" data-fill-palette-color="primary"></path><path d="M11.493 145.973c0-1.735 1.406-3.141 3.141-3.141 1.735 0 3.141 1.406 3.141 3.141 0 1.735-1.406 3.141-3.141 3.141-1.735 0-3.141-1.406-3.141-3.141z" fill="#000000" data-fill-palette-color="primary"></path><path d="M262.631 145.973c0-1.735 1.406-3.141 3.141-3.141 1.735 0 3.141 1.406 3.14 3.141 0 1.735-1.406 3.141-3.14 3.141-1.735 0-3.141-1.406-3.141-3.141z" fill="#000000" data-fill-palette-color="primary"></path></g></svg></g></svg></g></svg></g></svg></g><defs></defs></svg><rect width="280" height="280" fill="none" stroke="none" visibility="hidden"></rect></g></svg></g></svg>