<svg width="1440" height="1024" viewBox="0 0 1440 1024" fill="none" xmlns="http://www.w3.org/2000/svg">
<g clip-path="url(#clip0_1_2)">
<rect width="1440" height="1024" fill="white"/>
<rect x="-330" y="-242" width="2189" height="1617" fill="white"/>
<path d="M1035.5 359L822 195V265.5L939 359L790 449.5L837 487.5L1035.5 359Z" fill="#001F3F" stroke="#3D9970" stroke-width="18"/>
<path d="M790 315.5V189.5V146H1073.5V213H880.5L831 315.5H790Z" fill="#001F3F"/>
<g filter="url(#filter0_d_1_2)">
<path d="M769 404V530V573.5H1052.5V506.5H859.5L810 404H769Z" fill="#001F3F"/>
</g>
<path d="M1002.75 439L961.5 492.922H975.25L1016.5 439H1002.75ZM947.75 447.987L934 465.961L947.75 483.935H961.5L947.75 465.961L961.5 447.987H947.75ZM1016.5 447.987L1030.25 465.961L1016.5 483.935H1030.25L1044 465.961L1030.25 447.987H1016.5Z" fill="#3D9970"/>
</g>
<defs>
<filter id="filter0_d_1_2" x="765" y="404" width="291.5" height="177.5" filterUnits="userSpaceOnUse" color-interpolation-filters="sRGB">
<feFlood flood-opacity="0" result="BackgroundImageFix"/>
<feColorMatrix in="SourceAlpha" type="matrix" values="0 0 0 0 0 0 0 0 0 0 0 0 0 0 0 0 0 0 127 0" result="hardAlpha"/>
<feOffset dy="4"/>
<feGaussianBlur stdDeviation="2"/>
<feComposite in2="hardAlpha" operator="out"/>
<feColorMatrix type="matrix" values="0 0 0 0 0 0 0 0 0 0 0 0 0 0 0 0 0 0 0.25 0"/>
<feBlend mode="normal" in2="BackgroundImageFix" result="effect1_dropShadow_1_2"/>
<feBlend mode="normal" in="SourceGraphic" in2="effect1_dropShadow_1_2" result="shape"/>
</filter>
<clipPath id="clip0_1_2">
<rect width="1440" height="1024" fill="white"/>
</clipPath>
</defs>
</svg>
